<mxfile host="app.diagrams.net" modified="2023-10-31T03:18:05.715Z" agent="Mozilla/5.0 (Windows NT 10.0; Win64; x64) AppleWebKit/537.36 (KHTML, like Gecko) Chrome/118.0.0.0 Safari/537.36" etag="AlJZST6f9Li3gB7JkKvP" version="22.0.8" type="github">
  <diagram name="第 1 页" id="6WY-a0RJQl_VtvXdREuj">
    <mxGraphModel dx="2074" dy="1118" grid="0" gridSize="10" guides="1" tooltips="1" connect="1" arrows="1" fold="1" page="1" pageScale="1" pageWidth="827" pageHeight="1169" math="0" shadow="0">
      <root>
        <mxCell id="0" />
        <mxCell id="1" parent="0" />
        <mxCell id="i-A8Fx03CHumYEkmey0p-1" value="&lt;b&gt;&lt;font style=&quot;font-size: 20px;&quot;&gt;PC&lt;/font&gt;&lt;/b&gt;" style="whiteSpace=wrap;html=1;aspect=fixed;" vertex="1" parent="1">
          <mxGeometry x="40" y="400" width="120" height="120" as="geometry" />
        </mxCell>
        <mxCell id="i-A8Fx03CHumYEkmey0p-2" value="&lt;b&gt;USB &lt;br&gt;TO&lt;br&gt;UART&lt;/b&gt;" style="rounded=0;whiteSpace=wrap;html=1;" vertex="1" parent="1">
          <mxGeometry x="250" y="430" width="60" height="60" as="geometry" />
        </mxCell>
        <mxCell id="i-A8Fx03CHumYEkmey0p-3" value="&lt;b&gt;&lt;font style=&quot;font-size: 21px;&quot;&gt;MCU&lt;/font&gt;&lt;/b&gt;" style="rounded=0;whiteSpace=wrap;html=1;" vertex="1" parent="1">
          <mxGeometry x="400" y="400" width="120" height="120" as="geometry" />
        </mxCell>
        <mxCell id="i-A8Fx03CHumYEkmey0p-4" value="" style="shape=flexArrow;endArrow=classic;startArrow=classic;html=1;rounded=0;entryX=0;entryY=0.5;entryDx=0;entryDy=0;" edge="1" parent="1" source="i-A8Fx03CHumYEkmey0p-1" target="i-A8Fx03CHumYEkmey0p-2">
          <mxGeometry width="100" height="100" relative="1" as="geometry">
            <mxPoint x="190" y="630" as="sourcePoint" />
            <mxPoint x="290" y="530" as="targetPoint" />
          </mxGeometry>
        </mxCell>
        <mxCell id="i-A8Fx03CHumYEkmey0p-5" value="&lt;b&gt;&lt;font style=&quot;font-size: 15px;&quot;&gt;USB&lt;/font&gt;&lt;/b&gt;" style="edgeLabel;html=1;align=center;verticalAlign=middle;resizable=0;points=[];" vertex="1" connectable="0" parent="i-A8Fx03CHumYEkmey0p-4">
          <mxGeometry x="-0.43" y="3" relative="1" as="geometry">
            <mxPoint x="14" y="-17" as="offset" />
          </mxGeometry>
        </mxCell>
        <mxCell id="i-A8Fx03CHumYEkmey0p-6" value="" style="endArrow=classic;html=1;rounded=0;exitX=1;exitY=0.25;exitDx=0;exitDy=0;entryX=0.017;entryY=0.367;entryDx=0;entryDy=0;entryPerimeter=0;" edge="1" parent="1">
          <mxGeometry width="50" height="50" relative="1" as="geometry">
            <mxPoint x="310" y="452" as="sourcePoint" />
            <mxPoint x="402.03999999999996" y="451.03999999999996" as="targetPoint" />
          </mxGeometry>
        </mxCell>
        <mxCell id="i-A8Fx03CHumYEkmey0p-7" value="" style="endArrow=classic;html=1;rounded=0;entryX=1;entryY=0.75;entryDx=0;entryDy=0;exitX=0;exitY=0.617;exitDx=0;exitDy=0;exitPerimeter=0;" edge="1" parent="1">
          <mxGeometry width="50" height="50" relative="1" as="geometry">
            <mxPoint x="400" y="467.03999999999996" as="sourcePoint" />
            <mxPoint x="310" y="468" as="targetPoint" />
          </mxGeometry>
        </mxCell>
        <mxCell id="i-A8Fx03CHumYEkmey0p-8" value="&lt;b&gt;&lt;font style=&quot;font-size: 14px;&quot;&gt;Rx&lt;/font&gt;&lt;/b&gt;" style="text;html=1;align=center;verticalAlign=middle;resizable=0;points=[];autosize=1;strokeColor=none;fillColor=none;" vertex="1" parent="1">
          <mxGeometry x="364" y="428" width="40" height="30" as="geometry" />
        </mxCell>
        <mxCell id="i-A8Fx03CHumYEkmey0p-9" value="&lt;b&gt;&lt;font style=&quot;font-size: 14px;&quot;&gt;Tx&lt;/font&gt;&lt;/b&gt;" style="text;html=1;align=center;verticalAlign=middle;resizable=0;points=[];autosize=1;strokeColor=none;fillColor=none;" vertex="1" parent="1">
          <mxGeometry x="366" y="463" width="40" height="30" as="geometry" />
        </mxCell>
        <mxCell id="i-A8Fx03CHumYEkmey0p-10" value="&lt;b style=&quot;font-size: 14px;&quot;&gt;1. If I want to use Uart to update the firmware of MCU, I need the bootloader, so Which one do I need to use? Or do I need to realize it by myself?&lt;br&gt;&lt;br&gt;2. I want to reset the MCU and enter the bootloader when the MCU receives a special command from the PC. How to reset the MCU and jump to the bootloader?&lt;br&gt;&lt;br&gt;3. I do want to use my App, NOT Arduino IDE, to finish the update. Which protocol should I use?&lt;/b&gt;" style="rounded=0;whiteSpace=wrap;html=1;align=left;" vertex="1" parent="1">
          <mxGeometry x="24" y="544" width="561" height="149" as="geometry" />
        </mxCell>
      </root>
    </mxGraphModel>
  </diagram>
</mxfile>
